<svg width="30" height="38" viewBox="0 0 30 38" fill="none" xmlns="http://www.w3.org/2000/svg">
<path d="M4.49319 7.24396C4.49319 7.03669 4.41086 6.83791 4.26429 6.69135C4.11773 6.54478 3.91895 6.46244 3.71168 6.46244H2.67211C5.90646 3.29862 10.2583 1.53842 14.7827 1.56406C19.3071 1.5897 23.6387 3.3991 26.837 6.59937C26.9847 6.73972 27.1815 6.81681 27.3853 6.81419C27.589 6.81157 27.7837 6.72945 27.9278 6.58535C28.0719 6.44125 28.1541 6.24655 28.1567 6.04278C28.1593 5.839 28.0822 5.64226 27.9419 5.4945C24.45 2.00092 19.7206 0.0264948 14.7812 0.000264707C9.8419 -0.0259654 5.09176 1.89812 1.56303 5.35442V4.31275C1.56303 4.10548 1.4807 3.90669 1.33413 3.76013C1.18757 3.61357 0.988788 3.53123 0.781517 3.53123C0.574246 3.53123 0.375464 3.61357 0.228901 3.76013C0.082338 3.90669 0 4.10548 0 4.31275V7.24396C0 7.45123 0.082338 7.65001 0.228901 7.79658C0.375464 7.94314 0.574246 8.02548 0.781517 8.02548H3.71168C3.81431 8.02548 3.91593 8.00526 4.01075 7.96599C4.10557 7.92671 4.19172 7.86915 4.26429 7.79658C4.33686 7.72401 4.39443 7.63785 4.43371 7.54303C4.47298 7.44822 4.49319 7.34659 4.49319 7.24396ZM28.6623 29.4677H25.7321C25.5249 29.4677 25.3261 29.55 25.1795 29.6966C25.0329 29.8432 24.9506 30.0419 24.9506 30.2492C24.9506 30.4565 25.0329 30.6553 25.1795 30.8018C25.3261 30.9484 25.5249 31.0307 25.7321 31.0307H26.7085C23.4755 34.2037 19.1203 35.9716 14.5904 35.9497C10.0605 35.9278 5.72261 34.1179 2.52044 30.9138C2.37379 30.7673 2.17494 30.685 1.96764 30.6851C1.76034 30.6852 1.56157 30.7677 1.41505 30.9143C1.26854 31.061 1.18628 31.2598 1.18638 31.4671C1.18648 31.6744 1.26892 31.8732 1.41558 32.0197C4.92271 35.5273 9.67657 37.5028 14.6367 37.5136C19.5969 37.5245 24.3594 35.5699 27.8818 32.0777V33.1783C27.8818 33.3856 27.9642 33.5844 28.1107 33.7309C28.2573 33.8775 28.4561 33.9598 28.6633 33.9598C28.8706 33.9598 29.0694 33.8775 29.216 33.7309C29.3625 33.5844 29.4449 33.3856 29.4449 33.1783V30.2513C29.4449 30.044 29.3625 29.8453 29.216 29.6987C29.0694 29.5521 28.8706 29.4698 28.6633 29.4698L28.6623 29.4677Z" fill="#4C65AE"/>
<path d="M14.7202 6.25293C12.2469 6.25272 9.829 6.98597 7.77238 8.35994C5.71575 9.73392 4.11275 11.6869 3.16609 13.9719C2.21943 16.257 1.97163 18.7714 2.45403 21.1973C2.93643 23.6231 4.12737 25.8515 5.87622 27.6005C7.62508 29.3495 9.85332 30.5406 12.2791 31.0232C14.705 31.5058 17.2194 31.2582 19.5045 30.3118C21.7896 29.3653 23.7428 27.7625 25.1169 25.7059C26.4911 23.6494 27.2245 21.2316 27.2245 18.7583C27.222 15.4426 25.9038 12.2634 23.5594 9.9188C21.215 7.57417 18.0359 6.25572 14.7202 6.25293ZM14.7202 28.918C12.7108 28.918 10.7466 28.3221 9.07581 27.2057C7.40505 26.0894 6.10286 24.5027 5.33389 22.6462C4.56493 20.7898 4.36373 18.747 4.75575 16.7762C5.14776 14.8054 6.11538 12.9951 7.53624 11.5742C8.9571 10.1534 10.7674 9.18576 12.7382 8.79375C14.709 8.40173 16.7518 8.60293 18.6082 9.3719C20.4646 10.1409 22.0514 11.4431 23.1677 13.1138C24.2841 14.7846 24.88 16.7488 24.88 18.7583C24.8777 21.4521 23.8066 24.035 21.9018 25.9398C19.997 27.8446 17.4141 28.9157 14.7202 28.918Z" fill="#4C65AE"/>
<path d="M19.9171 14.6705L17.0406 17.5469C17.2498 17.946 17.3525 18.3923 17.3389 18.8427C17.3253 19.2931 17.1957 19.7324 16.9628 20.1181C16.7299 20.5038 16.4014 20.823 16.0091 21.0447C15.6169 21.2664 15.1741 21.3833 14.7235 21.3839C14.3023 21.3794 13.8887 21.2709 13.5196 21.068L12.301 22.2876C12.2295 22.3638 12.1435 22.4247 12.048 22.467C11.9525 22.5092 11.8494 22.5318 11.745 22.5334C11.6406 22.5351 11.537 22.5157 11.4402 22.4765C11.3434 22.4373 11.2555 22.3791 11.1817 22.3053C11.1078 22.2314 11.0496 22.1435 11.0104 22.0467C10.9712 21.9499 10.9518 21.8463 10.9535 21.7419C10.9551 21.6375 10.9777 21.5345 11.0199 21.439C11.0622 21.3435 11.1231 21.2574 11.1993 21.1859L12.4105 19.9663C12.1434 19.4745 12.0436 18.9091 12.1263 18.3555C12.209 17.802 12.4695 17.2904 12.8687 16.8981C13.2716 16.5178 13.782 16.271 14.3303 16.1913C14.8785 16.1116 15.4381 16.2028 15.9326 16.4526L18.8164 13.5604C18.8887 13.4879 18.9746 13.4305 19.0691 13.3913C19.1636 13.3521 19.2649 13.3319 19.3673 13.3319C19.4696 13.3319 19.5709 13.3521 19.6654 13.3913C19.76 13.4305 19.8458 13.4879 19.9181 13.5604C20.0645 13.7081 20.1465 13.9077 20.1463 14.1156C20.1461 14.3236 20.0637 14.523 19.9171 14.6705Z" fill="#4C65AE"/>
</svg>
