<svg width="48" height="34" viewBox="0 0 48 34" fill="none" xmlns="http://www.w3.org/2000/svg">
<path d="M10.2786 29.9044H0.997544C0.619844 20.9693 8.46068 20.7982 12.4283 21.8297C11.086 23.2139 10.4359 27.7896 10.2786 29.9044Z" stroke="#4C65AE" stroke-width="1.8"/>
<path d="M29.3769 8.64289C29.3769 12.5245 26.2302 15.6712 22.3486 15.6712C18.467 15.6712 15.3203 12.5245 15.3203 8.64289C15.3203 4.76127 18.467 1.6146 22.3486 1.6146C26.2302 1.6146 29.3769 4.76127 29.3769 8.64289Z" stroke="#4C65AE" stroke-width="1.8"/>
<path d="M13.5203 14.3047C13.5203 16.9355 11.3876 19.0682 8.75671 19.0682C6.12586 19.0682 3.99314 16.9355 3.99314 14.3047C3.99314 11.6738 6.12586 9.54111 8.75671 9.54111C11.3876 9.54111 13.5203 11.6738 13.5203 14.3047Z" stroke="#4C65AE" stroke-width="1.8"/>
<path d="M41.0392 14.3047C41.0392 16.9355 38.9065 19.0682 36.2756 19.0682C33.6448 19.0682 31.5121 16.9355 31.5121 14.3047C31.5121 11.6738 33.6448 9.54111 36.2756 9.54111C38.9065 9.54111 41.0392 11.6738 41.0392 14.3047Z" stroke="#4C65AE" stroke-width="1.8"/>
<path d="M32.6158 32.6833H11.7996C11.7996 29.8725 12.3571 28.2039 13.1617 25.6392C15.1958 19.9312 19.3151 18.2822 20.556 18.4219H24.6459C32.1544 20.4774 33.0878 28.7858 32.6158 32.6833Z" stroke="#4C65AE" stroke-width="1.8"/>
<path d="M35.3094 21.2854C34.0009 21.1861 32.1751 21.9558 32.3321 22.0283C33.3458 22.7469 34.2938 28.267 34.5183 31.0986H43.8568C43.9272 30.3436 43.5397 28.1885 43.2224 25.8273C42.9687 23.9385 43.7178 22.0122 44.124 21.2854C45.1486 19.4521 46.6468 15.9074 46.6468 13.4629L46.7639 7.9256C45.9203 6.21475 45.2209 7.21276 44.9768 7.9256C44.9574 8.88275 44.8186 11.3302 44.4203 13.4629C43.9222 16.1288 41.7543 18.9118 40.4361 20.0837C39.1178 21.2556 37.3219 21.4379 35.3094 21.2854Z" stroke="#4C65AE" stroke-width="1.8"/>
</svg>
