<svg width="29" height="29" viewBox="0 0 29 29" fill="none" xmlns="http://www.w3.org/2000/svg">
<path d="M17.059 17.2743H13.6477V20.6856H17.059V17.2743Z" fill="#4C65AE"/>
<path d="M15.3534 26.6554H13.6477V28.361H15.3534V26.6554Z" fill="#4C65AE"/>
<path d="M24.7344 2.41807V7.04039H23.0287V2.41807C23.0303 2.28924 22.9989 2.16214 22.9378 2.04875C22.8766 1.93536 22.7876 1.8394 22.6791 1.76993C22.5712 1.69727 22.4471 1.65227 22.3177 1.63888C22.1883 1.6255 22.0576 1.64414 21.9371 1.69317C18.2529 3.16856 14.4834 5.10447 10.8504 7.03186H7.22588L9.97198 5.60764C13.6477 3.70584 17.4257 1.72728 21.1696 0.217784C21.7895 -0.0468574 22.4857 -0.0711797 23.1225 0.149558C23.5911 0.31718 23.997 0.624611 24.2853 1.03031C24.5735 1.436 24.7303 1.92041 24.7344 2.41807ZM26.5424 7.89321H2.45006C1.77742 7.92206 1.14326 8.21489 0.685085 8.70819C0.226905 9.20149 -0.0183658 9.85551 0.0024504 10.5284V25.6917C-0.0123893 26.0305 0.0402859 26.3689 0.157412 26.6872C0.274539 27.0055 0.453778 27.2973 0.684708 27.5457C0.915637 27.7941 1.19365 27.9941 1.50257 28.134C1.81149 28.274 2.14516 28.3512 2.48417 28.361H11.0892V26.6554H10.2364L1.7081 19.9948V16.9417L11.0892 9.59886H18.6708L27.2929 16.3021V20.6259L19.5748 26.6554H17.9118V28.361H26.5509C27.2235 28.3322 27.8577 28.0393 28.3159 27.546C28.7741 27.0527 29.0193 26.3987 28.9985 25.7258V10.537C29.0216 9.86117 28.7762 9.20372 28.3159 8.70832C27.8557 8.21292 27.218 7.91987 26.5424 7.89321ZM7.78022 26.6554H2.56093C2.33474 26.6554 2.11782 26.5655 1.95789 26.4056C1.79795 26.2456 1.7081 26.0287 1.7081 25.8025V22.306L7.78022 26.6554ZM1.7081 14.6049V10.4517C1.7081 10.2255 1.79795 10.0086 1.95789 9.84865C2.11782 9.68871 2.33474 9.59886 2.56093 9.59886H8.72685L1.7081 14.6049ZM26.44 26.6554H22.0906L27.2929 22.9456V25.8025C27.2929 26.0287 27.203 26.2456 27.0431 26.4056C26.8831 26.5655 26.6662 26.6554 26.44 26.6554ZM27.2929 13.9653L21.1696 9.59886H26.44C26.6662 9.59886 26.8831 9.68871 27.0431 9.84865C27.203 10.0086 27.2929 10.2255 27.2929 10.4517V13.9653Z" fill="#4C65AE"/>
</svg>
