<svg width="33" height="35" viewBox="0 0 33 35" fill="none" xmlns="http://www.w3.org/2000/svg">
<path d="M1.57446 4.10604C1.57446 3.47179 1.82642 2.86352 2.2749 2.41504C2.72338 1.96655 3.33165 1.7146 3.9659 1.7146H23.0933C23.7276 1.7146 24.3359 1.96655 24.7843 2.41504C25.2328 2.86352 25.4848 3.47179 25.4848 4.10604V33.5964H3.9659C3.33165 33.5964 2.72338 33.3444 2.2749 32.8959C1.82642 32.4475 1.57446 31.8392 1.57446 31.2049L1.57446 4.10604Z" stroke="#4C65AE" stroke-width="1.8" stroke-linejoin="round"/>
<path d="M25.4847 17.6547C25.4847 17.2319 25.6527 16.8264 25.9517 16.5274C26.2507 16.2284 26.6562 16.0604 27.079 16.0604H30.2663C30.4756 16.0604 30.6829 16.1017 30.8764 16.1818C31.0698 16.2619 31.2456 16.3793 31.3936 16.5274C31.5416 16.6754 31.6591 16.8512 31.7392 17.0446C31.8193 17.238 31.8606 17.4454 31.8606 17.6547V31.2035C31.8606 31.8377 31.6086 32.446 31.1601 32.8945C30.7116 33.343 30.1034 33.5949 29.4691 33.5949H25.4847V17.6547Z" stroke="#4C65AE" stroke-width="1.8" stroke-linejoin="round"/>
<path d="M6.35596 8.09045H12.7318" stroke="#4C65AE" stroke-width="1.8" stroke-linecap="round" stroke-linejoin="round"/>
<path d="M6.35596 13.6704H15.9204" stroke="#4C65AE" stroke-width="1.8" stroke-linecap="round" stroke-linejoin="round"/>
</svg>
