<svg width="20" height="20" viewBox="0 0 20 20" fill="none" xmlns="http://www.w3.org/2000/svg">
<path d="M6.00007 6C6.00007 5.86739 6.05275 5.74022 6.14651 5.64645C6.24028 5.55268 6.36746 5.5 6.50007 5.5H9.50007C9.63268 5.5 9.75985 5.55268 9.85362 5.64645C9.94739 5.74022 10.0001 5.86739 10.0001 6C10.0001 6.13261 9.94739 6.25979 9.85362 6.35355C9.75985 6.44732 9.63268 6.5 9.50007 6.5H6.50007C6.36746 6.5 6.24028 6.44732 6.14651 6.35355C6.05275 6.25979 6.00007 6.13261 6.00007 6ZM6.50007 7.5C6.36746 7.5 6.24028 7.55268 6.14651 7.64645C6.05275 7.74022 6.00007 7.86739 6.00007 8C6.00007 8.13261 6.05275 8.25979 6.14651 8.35355C6.24028 8.44732 6.36746 8.5 6.50007 8.5H8.50007C8.63268 8.5 8.75985 8.44732 8.85362 8.35355C8.94739 8.25979 9.00007 8.13261 9.00007 8C9.00007 7.86739 8.94739 7.74022 8.85362 7.64645C8.75985 7.55268 8.63268 7.5 8.50007 7.5H6.50007ZM8.00007 1C6.95912 0.99965 5.93598 1.27012 5.0312 1.78485C4.12641 2.29957 3.37111 3.04083 2.83949 3.9358C2.30788 4.83077 2.01825 5.84864 1.99907 6.88942C1.97988 7.93019 2.2318 8.95805 2.73007 9.872L2.02007 12.362C1.99508 12.4494 1.99442 12.542 2.01814 12.6298C2.04187 12.7176 2.08908 12.7972 2.1547 12.8602C2.22033 12.9231 2.30187 12.967 2.39057 12.9871C2.47926 13.0071 2.57175 13.0026 2.65807 12.974L4.99607 12.195C5.79293 12.6555 6.68504 12.9265 7.60338 12.987C8.52173 13.0475 9.44169 12.896 10.2921 12.5441C11.1425 12.1922 11.9006 11.6494 12.5077 10.9577C13.1147 10.266 13.5545 9.44389 13.7931 8.555C14.0316 7.6661 14.0624 6.73425 13.8832 5.83153C13.704 4.92882 13.3195 4.07943 12.7594 3.34908C12.1994 2.61873 11.4789 2.027 10.6536 1.61967C9.82834 1.21233 8.92041 1.00031 8.00007 1V1ZM3.00007 7C3.00023 5.8906 3.36935 4.81277 4.04931 3.93618C4.72928 3.05959 5.68146 2.43403 6.75597 2.15799C7.83048 1.88195 8.96627 1.97111 9.98455 2.41142C11.0028 2.85174 11.8457 3.6182 12.3806 4.59015C12.9155 5.5621 13.1119 6.68433 12.9389 7.78016C12.766 8.876 12.2335 9.8832 11.4253 10.6432C10.6172 11.4032 9.57917 11.8728 8.47478 11.9782C7.3704 12.0835 6.26234 11.8185 5.32507 11.225C5.26237 11.1853 5.19161 11.16 5.11793 11.151C5.04424 11.142 4.96948 11.1495 4.89907 11.173L3.24107 11.726L3.75107 9.945C3.76965 9.87941 3.77462 9.81071 3.76568 9.74313C3.75674 9.67554 3.73407 9.6105 3.69907 9.552C3.23993 8.78005 2.99838 7.89818 3.00007 7ZM12.2761 14.947L9.87407 13.747C10.3141 13.624 10.7371 13.46 11.1371 13.259L12.5001 13.941L17.0001 11.691V11C17.0001 10.7348 16.8947 10.4804 16.7072 10.2929C16.5196 10.1054 16.2653 10 16.0001 10H14.3261C14.4791 9.68 14.6071 9.345 14.7101 9H16.0001C16.5305 9 17.0392 9.21071 17.4143 9.58579C17.7894 9.96086 18.0001 10.4696 18.0001 11V16C18.0001 16.5304 17.7894 17.0391 17.4143 17.4142C17.0392 17.7893 16.5305 18 16.0001 18H9.00007C8.46963 18 7.96093 17.7893 7.58585 17.4142C7.21078 17.0391 7.00007 16.5304 7.00007 16V13.93C7.32707 13.976 7.66007 14 8.00007 14V16C8.00007 16.2652 8.10542 16.5196 8.29296 16.7071C8.4805 16.8946 8.73485 17 9.00007 17H16.0001C16.2653 17 16.5196 16.8946 16.7072 16.7071C16.8947 16.5196 17.0001 16.2652 17.0001 16V12.809L12.7241 14.947C12.6545 14.9818 12.5778 15 12.5001 15C12.4223 15 12.3456 14.9818 12.2761 14.947V14.947Z" fill="black"/>
</svg>
