<svg width="30" height="27" viewBox="0 0 30 27" fill="none" xmlns="http://www.w3.org/2000/svg">
<path d="M23.0571 14.649H12.8974C12.5765 14.649 12.316 14.9089 12.316 15.2304C12.316 15.5519 12.5765 15.8118 12.8974 15.8118H23.0571C23.3786 15.8118 23.6385 15.5519 23.6385 15.2304C23.6385 14.9089 23.3786 14.649 23.0571 14.649ZM23.0571 19.6379H17.9775C17.656 19.6379 17.3962 19.8978 17.3962 20.2193C17.3962 20.5408 17.656 20.8007 17.9775 20.8007H23.0571C23.3786 20.8007 23.6385 20.5408 23.6385 20.2193C23.6385 19.8978 23.3786 19.6379 23.0571 19.6379ZM23.0571 17.1432H14.6916C14.3706 17.1432 14.1102 17.4031 14.1102 17.7246C14.1102 18.0461 14.3706 18.3059 14.6916 18.3059H23.0571C23.3786 18.3059 23.6385 18.0461 23.6385 17.7246C23.6385 17.4031 23.3786 17.1432 23.0571 17.1432Z" fill="#4C65AE"/>
<path d="M27.1256 0H5.3993C4.27723 0 3.36446 0.912771 3.36446 2.03484V3.62434C3.36446 3.6255 3.36388 3.62608 3.36388 3.62725C3.36388 3.62841 3.36446 3.62899 3.36446 3.63015V6.34172C3.36446 6.34289 3.36388 6.34347 3.36388 6.34463C3.36388 6.34579 3.36446 6.34637 3.36446 6.34754V8.42075H2.03251C0.911608 8.42075 0 9.33236 0 10.4533V24.9675C0 26.0884 0.911608 27 2.03251 27H23.7605C24.882 27 25.7936 26.0884 25.7936 24.9675V18.581H27.125C28.2471 18.581 29.1598 17.6682 29.1598 16.5462V2.03484C29.1604 0.913352 28.2476 0 27.1256 0ZM4.52723 4.20921H27.9977V5.76383H4.52723V4.20921ZM5.3993 1.16277H27.1256C27.6064 1.16277 27.9977 1.55404 27.9977 2.03484V3.04586H4.52723V2.03484C4.52723 1.55404 4.9185 1.16277 5.3993 1.16277ZM2.0331 9.5841H23.7611C24.2408 9.5841 24.6314 9.9742 24.6314 10.4538V12.0486H1.16335V10.4538C1.16335 9.9742 1.55345 9.5841 2.0331 9.5841ZM24.6314 24.9681C24.6314 25.4477 24.2408 25.8378 23.7611 25.8378H2.0331C1.55345 25.8378 1.16335 25.4477 1.16335 24.9681V13.2113H24.6314V24.9681ZM27.1256 17.4182H25.7942V10.4538C25.7942 9.33294 24.8826 8.42133 23.7611 8.42133H4.52723V6.9266H27.9977V16.5467C27.9977 17.027 27.6064 17.4182 27.1256 17.4182Z" fill="#4C65AE"/>
<path d="M7.19932 14.4445C4.63252 14.4445 2.54419 16.5328 2.54419 19.0996C2.54419 21.6664 4.63252 23.7547 7.19932 23.7547C9.76613 23.7547 11.8539 21.6664 11.8539 19.0996C11.8539 16.5328 9.76613 14.4445 7.19932 14.4445ZM7.19932 22.592C5.27378 22.592 3.70696 21.0257 3.70696 19.0996C3.70696 17.1735 5.27378 15.6072 7.19932 15.6072C9.12486 15.6072 10.6911 17.1735 10.6911 19.0996C10.6911 21.0257 9.12486 22.592 7.19932 22.592Z" fill="#4C65AE"/>
<path d="M7.19932 18.5182C6.95513 18.5182 6.75688 18.3193 6.75688 18.0752C6.75688 17.831 6.95513 17.6327 7.19932 17.6327C7.3464 17.6327 7.48419 17.706 7.56675 17.8281C7.74581 18.0943 8.10743 18.1635 8.37371 17.985C8.63998 17.8048 8.70975 17.4438 8.5301 17.1775C8.35917 16.9246 8.11964 16.7386 7.84988 16.6182V16.4019C7.84988 16.0804 7.58942 15.8206 7.2685 15.8206C6.94758 15.8206 6.68712 16.0804 6.68712 16.4019V16.5618C6.05399 16.7769 5.59412 17.3705 5.59412 18.0752C5.59412 18.96 6.31445 19.6809 7.19932 19.6809C7.4435 19.6809 7.64175 19.8798 7.64175 20.124C7.64175 20.3681 7.4435 20.5664 7.19932 20.5664C7.05223 20.5664 6.91444 20.4931 6.83188 20.371C6.65282 20.1048 6.29119 20.0356 6.02492 20.2141C5.75865 20.3943 5.68888 20.7553 5.86853 21.0216C6.06794 21.3169 6.35922 21.5228 6.68712 21.6344V21.8001C6.68712 22.1216 6.94758 22.3815 7.2685 22.3815C7.58942 22.3815 7.84988 22.1216 7.84988 21.8001V21.5885C8.4115 21.3379 8.80509 20.7774 8.80509 20.124C8.80451 19.2385 8.08476 18.5182 7.19932 18.5182Z" fill="#4C65AE"/>
</svg>
