<svg width="136" height="83" viewBox="0 0 136 83" fill="none" xmlns="http://www.w3.org/2000/svg">
<path d="M11.2586 17.8771C15.1294 17.8771 18.2673 14.7393 18.2673 10.8685C18.2673 6.99773 15.1294 3.85986 11.2586 3.85986C7.38787 3.85986 4.25 6.99773 4.25 10.8685C4.25 14.7393 7.38787 17.8771 11.2586 17.8771Z" fill="#FF6584"/>
<path d="M67.649 82.3981C105.011 82.3981 135.298 81.1702 135.298 79.6556C135.298 78.1409 105.011 76.9131 67.649 76.9131C30.2875 76.9131 0 78.1409 0 79.6556C0 81.1702 30.2875 82.3981 67.649 82.3981Z" fill="#E6E6E6"/>
<path d="M17.2169 45.2853C26.7255 45.2853 34.4337 37.577 34.4337 28.0684C34.4337 18.5598 26.7255 10.8516 17.2169 10.8516C7.70825 10.8516 0 18.5598 0 28.0684C0 37.577 7.70825 45.2853 17.2169 45.2853Z" fill="#FFE249"/>
<path d="M18.878 79.9265H15.3516L16.9591 25.4756L18.878 79.9265Z" fill="#344577"/>
<path d="M17.2675 35.7952L21.0532 30.5576L17.2157 37.0916L16.8008 36.3656L17.2675 35.7952Z" fill="#344577"/>
<path d="M16.852 41.0843L13.0664 35.8467L16.9039 42.3807L17.3188 41.6547L16.852 41.0843Z" fill="#344577"/>
<path d="M126.081 79.9842H122.555L124.162 25.5332L126.081 79.9842Z" fill="#344577"/>
<path d="M124.471 35.8528L128.256 30.6152L124.419 37.1493L124.004 36.4233L124.471 35.8528Z" fill="#344577"/>
<path d="M124.059 41.1419L120.273 35.9043L124.111 42.4383L124.526 41.7123L124.059 41.1419Z" fill="#344577"/>
<path d="M69.9437 79.9744C87.657 79.9744 102.016 65.615 102.016 47.9018C102.016 30.1885 87.657 15.8291 69.9437 15.8291C52.2305 15.8291 37.8711 30.1885 37.8711 47.9018C37.8711 65.615 52.2305 79.9744 69.9437 79.9744Z" fill="#344577"/>
<path d="M69.9411 77.3196C86.188 77.3196 99.3587 64.1489 99.3587 47.902C99.3587 31.6551 86.188 18.4844 69.9411 18.4844C53.6942 18.4844 40.5234 31.6551 40.5234 47.902C40.5234 64.1489 53.6942 77.3196 69.9411 77.3196Z" fill="white"/>
<path d="M69.8357 51.938C72.0058 51.938 73.7651 50.1787 73.7651 48.0085C73.7651 45.8384 72.0058 44.0791 69.8357 44.0791C67.6655 44.0791 65.9062 45.8384 65.9062 48.0085C65.9062 50.1787 67.6655 51.938 69.8357 51.938Z" fill="#344577"/>
<path d="M70.6875 19.9707H68.9883V23.1567H70.6875V19.9707Z" fill="#344577"/>
<path d="M70.6875 72.8594H68.9883V76.0454H70.6875V72.8594Z" fill="#344577"/>
<path d="M44.9844 48.8574V47.1582H41.7984V48.8574H44.9844Z" fill="#344577"/>
<path d="M97.875 48.8574V47.1582H94.689V48.8574H97.875Z" fill="#344577"/>
<path d="M68.7031 49.714L70.1553 46.3936L88.3511 56.471L68.7031 49.714Z" fill="#344577"/>
<path d="M74.0844 8.07617H65.8008V17.6342H74.0844V8.07617Z" fill="#344577"/>
<path d="M69.9409 10.7314C75.2197 10.7314 79.499 9.54273 79.499 8.07641C79.499 6.61008 75.2197 5.42139 69.9409 5.42139C64.6621 5.42139 60.3828 6.61008 60.3828 8.07641C60.3828 9.54273 64.6621 10.7314 69.9409 10.7314Z" fill="#344577"/>
<path d="M87.838 53.5832L87.307 54.3267C87.307 54.3267 84.8644 57.1941 84.7582 55.8135C84.652 54.4329 86.5636 53.477 86.5636 53.477L87.6256 52.8398L87.838 53.5832Z" fill="#FFB8B8"/>
<path d="M102.954 56.092L103.399 56.8901C103.399 56.8901 104.945 60.3248 103.652 59.83C102.359 59.3351 102.313 57.1984 102.313 57.1984L102.191 55.9658L102.954 56.092Z" fill="#FFB8B8"/>
<path d="M100.562 41.9402C102.348 41.9402 103.796 40.4924 103.796 38.7064C103.796 36.9205 102.348 35.4727 100.562 35.4727C98.7759 35.4727 97.3281 36.9205 97.3281 38.7064C97.3281 40.4924 98.7759 41.9402 100.562 41.9402Z" fill="#2F2E41"/>
<path d="M100.262 65.2654L100.687 68.0266V68.8762H103.129V67.8142C103.129 67.8142 103.235 65.9026 102.811 65.3716C102.386 64.8406 100.262 65.2654 100.262 65.2654Z" fill="#FFB8B8"/>
<path d="M95.9102 65.2654L96.335 68.0266V68.8762H98.7776V67.8142C98.7776 67.8142 98.8838 65.9026 98.459 65.3716C98.0342 64.8406 95.9102 65.2654 95.9102 65.2654Z" fill="#FFB8B8"/>
<path d="M97.5533 43.0859C97.5533 43.0859 96.6138 43.5811 97.2555 44.7075C97.8972 45.8339 101.662 57.4871 101.662 57.4871L103.834 56.8705L101.919 49.5007L100.822 44.8686L97.5533 43.0859Z" fill="#FFE249"/>
<path d="M100.208 42.061C101.557 42.061 102.651 40.9674 102.651 39.6184C102.651 38.2694 101.557 37.1758 100.208 37.1758C98.8592 37.1758 97.7656 38.2694 97.7656 39.6184C97.7656 40.9674 98.8592 42.061 100.208 42.061Z" fill="#FFB8B8"/>
<path d="M101.326 39.9902L101.008 44.9817L98.7773 43.3887C98.7773 43.3887 99.5207 40.415 99.3083 40.2026L101.326 39.9902Z" fill="#FFB8B8"/>
<path d="M101.323 44.5565L98.9206 42.7774C98.9206 42.7774 97.8186 42.3263 97.5 42.8573C97.1814 43.3883 95.5884 51.2472 96.438 52.734C96.438 52.734 101.005 53.6898 101.96 53.1588L102.385 50.3976C102.385 50.3976 102.916 48.6983 102.067 47.6363L101.323 44.5565Z" fill="#FFE249"/>
<path d="M98.1401 42.964C98.1401 42.964 97.2905 42.3268 96.5471 43.3888C95.8037 44.4508 86.8828 52.8407 86.8828 52.8407L88.3696 54.5399L94.2107 49.6546L97.9277 46.681L98.1401 42.964Z" fill="#FFE249"/>
<path d="M102.014 53.1062C102.014 53.1062 96.7568 52.0973 96.2258 52.8407L96.1196 54.0089C96.1196 54.0089 94.9514 56.2391 95.5886 59.8499C96.2258 63.4607 95.801 65.691 95.801 65.691C95.801 65.691 98.6684 65.3724 100.792 65.691C102.916 66.0096 103.235 65.691 103.235 65.691L102.014 53.1062Z" fill="#2F2E41"/>
<path d="M103.342 68.4521L100.262 68.5583L101.324 76.5234C101.324 76.5234 100.474 79.9218 101.43 80.1342C102.094 80.2683 102.77 80.3395 103.448 80.3466C103.448 80.3466 104.404 81.3024 105.466 81.1962C106.171 81.1062 106.854 80.8903 107.483 80.559C107.483 80.559 107.696 79.9218 106.952 79.7094C106.209 79.497 104.191 78.8598 103.766 76.6296L103.342 68.4521Z" fill="#2F2E41"/>
<path d="M98.99 68.4521L95.9102 68.5583L96.9722 76.5234C96.9722 76.5234 96.1226 79.9218 97.0784 80.1342C97.7428 80.2683 98.4184 80.3395 99.0962 80.3466C99.0962 80.3466 100.052 81.3024 101.114 81.1962C101.819 81.1062 102.503 80.8903 103.132 80.559C103.132 80.559 103.344 79.9218 102.601 79.7094C101.857 79.497 99.8396 78.8598 99.4148 76.6296L98.99 68.4521Z" fill="#2F2E41"/>
<path d="M101.694 36.6411C102.433 36.6411 103.032 36.042 103.032 35.303C103.032 34.5639 102.433 33.9648 101.694 33.9648C100.955 33.9648 100.355 34.5639 100.355 35.303C100.355 36.042 100.955 36.6411 101.694 36.6411Z" fill="#2F2E41"/>
<path d="M103.48 34.5783C103.48 34.2476 103.357 33.9286 103.136 33.6828C102.915 33.437 102.61 33.282 102.281 33.2475C102.328 33.2427 102.374 33.2402 102.421 33.2402C102.776 33.2402 103.116 33.3812 103.367 33.6322C103.618 33.8831 103.759 34.2235 103.759 34.5783C103.759 34.9332 103.618 35.2736 103.367 35.5245C103.116 35.7755 102.776 35.9164 102.421 35.9164C102.374 35.9164 102.328 35.914 102.281 35.9092C102.61 35.8747 102.915 35.7196 103.136 35.4739C103.357 35.2281 103.48 34.9091 103.48 34.5783Z" fill="#2F2E41"/>
<path d="M100.187 39.3588C101.419 39.3588 102.417 38.7597 102.417 38.0207C102.417 37.2817 101.419 36.6826 100.187 36.6826C98.9555 36.6826 97.957 37.2817 97.957 38.0207C97.957 38.7597 98.9555 39.3588 100.187 39.3588Z" fill="#2F2E41"/>
<path d="M135.316 6.42267C135.225 4.81203 134.564 3.2861 133.453 2.11693C132.341 0.947752 130.851 0.211337 129.247 0.0389769C127.643 -0.133383 126.03 0.269517 124.695 1.17584C123.361 2.08217 122.391 3.433 121.96 4.98751C121.878 4.98455 121.795 4.98124 121.712 4.98124C120.242 4.98151 118.811 5.45793 117.633 6.33924C116.456 7.22055 115.596 8.45937 115.181 9.87035C114.206 9.44217 113.117 9.34927 112.085 9.60621C111.052 9.86314 110.133 10.4554 109.473 11.2902H130.706C131.326 11.292 131.939 11.1687 132.51 10.9278C133.08 10.6869 133.597 10.3334 134.027 9.88826C134.458 9.44316 134.795 8.91571 135.017 8.33748C135.239 7.75925 135.342 7.14212 135.321 6.52306C135.319 6.48964 135.318 6.45618 135.316 6.42267Z" fill="#E6E6E6"/>
<path d="M117.563 20.7485C118.572 20.7485 119.391 19.9299 119.391 18.9201C119.391 17.9104 118.572 17.0918 117.563 17.0918C116.553 17.0918 115.734 17.9104 115.734 18.9201C115.734 19.9299 116.553 20.7485 117.563 20.7485Z" fill="#E6E6E6"/>
<path d="M123.085 16.1316C123.926 16.1316 124.607 15.4501 124.607 14.6093C124.607 13.7685 123.926 13.0869 123.085 13.0869C122.244 13.0869 121.562 13.7685 121.562 14.6093C121.562 15.4501 122.244 16.1316 123.085 16.1316Z" fill="#E6E6E6"/>
<path d="M130.516 24.7104C131.526 24.7104 132.344 23.8918 132.344 22.882C132.344 21.8723 131.526 21.0537 130.516 21.0537C129.506 21.0537 128.688 21.8723 128.688 22.882C128.688 23.8918 129.506 24.7104 130.516 24.7104Z" fill="#E6E6E6"/>
<path d="M116.649 33.0903C117.658 33.0903 118.477 32.2717 118.477 31.2619C118.477 30.2522 117.658 29.4336 116.649 29.4336C115.639 29.4336 114.82 30.2522 114.82 31.2619C114.82 32.2717 115.639 33.0903 116.649 33.0903Z" fill="#E6E6E6"/>
<path d="M130.516 43.603C131.526 43.603 132.344 42.7844 132.344 41.7746C132.344 40.7649 131.526 39.9463 130.516 39.9463C129.506 39.9463 128.688 40.7649 128.688 41.7746C128.688 42.7844 129.506 43.603 130.516 43.603Z" fill="#E6E6E6"/>
<path d="M127.618 77.0297C127.619 77.0099 127.621 76.9905 127.621 76.9705C127.621 76.6642 127.545 76.3626 127.398 76.0937C127.251 75.8247 127.039 75.597 126.782 75.4315C126.524 75.266 126.228 75.168 125.923 75.1466C125.617 75.1252 125.311 75.1811 125.033 75.3091C124.772 75.0076 124.419 74.8001 124.028 74.7184C123.638 74.6366 123.231 74.6852 122.871 74.8566C122.511 75.0281 122.217 75.3129 122.034 75.6674C121.851 76.022 121.79 76.4267 121.859 76.8196C121.85 76.8194 121.841 76.8182 121.831 76.8182C121.54 76.8177 121.253 76.8867 120.994 77.0195C120.735 77.1523 120.512 77.3451 120.342 77.5817C120.173 77.8183 120.062 78.0919 120.02 78.3799C119.977 78.6678 120.004 78.9618 120.098 79.2372C120.192 79.5127 120.351 79.7617 120.56 79.9636C120.77 80.1655 121.025 80.3144 121.304 80.3979C121.582 80.4815 121.877 80.4972 122.163 80.4439C122.449 80.3906 122.719 80.2697 122.949 80.0914C123.094 80.3741 123.31 80.6141 123.576 80.7877C123.843 80.9613 124.149 81.0624 124.467 81.0811C124.784 81.0998 125.101 81.0355 125.385 80.8945C125.67 80.7534 125.913 80.5405 126.091 80.2768C126.308 80.4351 126.558 80.5434 126.822 80.5939C127.087 80.6444 127.359 80.636 127.619 80.5691C127.88 80.5023 128.122 80.3787 128.33 80.2072C128.537 80.0357 128.704 79.8206 128.818 79.5771C128.933 79.3337 128.992 79.0679 128.992 78.7989C128.992 78.5299 128.933 78.2642 128.818 78.0208C128.703 77.7774 128.536 77.5624 128.329 77.3911C128.121 77.2197 127.879 77.0963 127.618 77.0297Z" fill="#E6E6E6"/>
<path d="M132.191 35.2228C132.612 35.2228 132.953 34.8818 132.953 34.461C132.953 34.0403 132.612 33.6992 132.191 33.6992C131.771 33.6992 131.43 34.0403 131.43 34.461C131.43 34.8818 131.771 35.2228 132.191 35.2228Z" fill="#E6E6E6"/>
<path d="M127.316 16.9396C127.737 16.9396 128.078 16.5986 128.078 16.1778C128.078 15.7571 127.737 15.416 127.316 15.416C126.896 15.416 126.555 15.7571 126.555 16.1778C126.555 16.5986 126.896 16.9396 127.316 16.9396Z" fill="#E6E6E6"/>
<path d="M124.727 35.8322C125.147 35.8322 125.488 35.4911 125.488 35.0704C125.488 34.6497 125.147 34.3086 124.727 34.3086C124.306 34.3086 123.965 34.6497 123.965 35.0704C123.965 35.4911 124.306 35.8322 124.727 35.8322Z" fill="#E6E6E6"/>
<path d="M125.336 35.0705C125.757 35.0705 126.098 34.7294 126.098 34.3087C126.098 33.8879 125.757 33.5469 125.336 33.5469C124.915 33.5469 124.574 33.8879 124.574 34.3087C124.574 34.7294 124.915 35.0705 125.336 35.0705Z" fill="#E6E6E6"/>
<path d="M125.793 34.3088C126.214 34.3088 126.555 33.9677 126.555 33.547C126.555 33.1262 126.214 32.7852 125.793 32.7852C125.372 32.7852 125.031 33.1262 125.031 33.547C125.031 33.9677 125.372 34.3088 125.793 34.3088Z" fill="#E6E6E6"/>
<path d="M123.965 40.7082C124.386 40.7082 124.727 40.3671 124.727 39.9464C124.727 39.5256 124.386 39.1846 123.965 39.1846C123.544 39.1846 123.203 39.5256 123.203 39.9464C123.203 40.3671 123.544 40.7082 123.965 40.7082Z" fill="#E6E6E6"/>
<path d="M135.238 49.2404C135.659 49.2404 136 48.8993 136 48.4786C136 48.0579 135.659 47.7168 135.238 47.7168C134.818 47.7168 134.477 48.0579 134.477 48.4786C134.477 48.8993 134.818 49.2404 135.238 49.2404Z" fill="#E6E6E6"/>
<path d="M118.934 49.6974C119.354 49.6974 119.695 49.3564 119.695 48.9356C119.695 48.5149 119.354 48.1738 118.934 48.1738C118.513 48.1738 118.172 48.5149 118.172 48.9356C118.172 49.3564 118.513 49.6974 118.934 49.6974Z" fill="#E6E6E6"/>
<path d="M119.848 26.2336C120.268 26.2336 120.61 25.8925 120.61 25.4718C120.61 25.051 120.268 24.71 119.848 24.71C119.427 24.71 119.086 25.051 119.086 25.4718C119.086 25.8925 119.427 26.2336 119.848 26.2336Z" fill="#E6E6E6"/>
<path d="M123.356 39.9465C123.776 39.9465 124.117 39.6054 124.117 39.1847C124.117 38.7639 123.776 38.4229 123.356 38.4229C122.935 38.4229 122.594 38.7639 122.594 39.1847C122.594 39.6054 122.935 39.9465 123.356 39.9465Z" fill="#E6E6E6"/>
<path d="M122.594 38.7277C123.015 38.7277 123.356 38.3866 123.356 37.9659C123.356 37.5452 123.015 37.2041 122.594 37.2041C122.173 37.2041 121.832 37.5452 121.832 37.9659C121.832 38.3866 122.173 38.7277 122.594 38.7277Z" fill="#E6E6E6"/>
</svg>
