<svg width="34" height="34" viewBox="0 0 34 34" fill="none" xmlns="http://www.w3.org/2000/svg">
<path d="M17 0C7.61899 0 0.000128286 7.61901 9.218e-10 17C-9.67683e-05 26.3813 7.61884 34 17 34C26.3812 34 34.0001 26.3813 34 17C33.9999 7.61901 26.381 0 17 0ZM17 1.31025C25.6742 1.31025 32.6922 8.32582 32.6923 17C32.6924 25.6744 25.6744 32.6923 17 32.6923C8.32561 32.6923 1.3076 25.6744 1.30769 17C1.30781 8.32582 8.32576 1.31025 17 1.31025ZM23.4056 8.11689C22.7364 8.11689 22.0643 8.37789 21.5565 8.88567L18.5708 11.8688L11.0694 10.5331C10.9657 10.5145 10.8591 10.5214 10.7586 10.5529C10.6581 10.5845 10.5667 10.6399 10.4922 10.7144L8.64303 12.5636C8.56412 12.6422 8.50661 12.7397 8.47594 12.8467C8.44527 12.9538 8.44247 13.067 8.4678 13.1755C8.49312 13.2839 8.54574 13.3841 8.62066 13.4666C8.69558 13.549 8.79032 13.6109 8.89588 13.6465L14.8035 15.6412L11.8203 18.6397L10.6224 18.3869C10.5158 18.3645 10.4053 18.3692 10.3009 18.4004C10.1965 18.4316 10.1016 18.4884 10.0248 18.5657L8.17563 20.4148C8.09984 20.4907 8.04387 20.584 8.01266 20.6866C7.98144 20.7892 7.97594 20.8979 7.99663 21.0031C8.01732 21.1084 8.06357 21.2069 8.13131 21.29C8.19905 21.3731 8.28619 21.4383 8.38507 21.4799L11.3938 22.7441L12.6581 25.7529C12.6996 25.8517 12.7648 25.9389 12.8479 26.0066C12.931 26.0743 13.0296 26.1206 13.1348 26.1413C13.24 26.162 13.3487 26.1565 13.4513 26.1253C13.5539 26.094 13.6472 26.0381 13.7231 25.9623L15.5748 24.1131C15.6516 24.0365 15.7082 23.9421 15.7394 23.8382C15.7706 23.7343 15.7755 23.6243 15.7536 23.518L15.5084 22.3304L18.5095 19.3293L20.5195 25.2267C20.5556 25.3316 20.6177 25.4256 20.7001 25.4998C20.7824 25.5741 20.8823 25.6262 20.9904 25.6512C21.0984 25.6763 21.211 25.6734 21.3177 25.6429C21.4243 25.6125 21.5214 25.5554 21.5999 25.477L23.4491 23.6279C23.5236 23.5534 23.5789 23.462 23.6105 23.3615C23.6421 23.261 23.6489 23.1543 23.6304 23.0506L22.3023 15.5365L25.2548 12.584C25.2557 12.584 25.2565 12.584 25.2574 12.584C26.2697 11.5662 26.2713 9.90201 25.2548 8.88567C24.747 8.37789 24.0749 8.11689 23.4056 8.11689ZM23.4056 9.42458C23.7392 9.42458 24.0697 9.55002 24.3302 9.81025C24.8503 10.3302 24.8481 11.1362 24.3277 11.6594L21.1376 14.852C21.0631 14.9265 21.0077 15.0179 20.9762 15.1184C20.9446 15.2189 20.9378 15.3255 20.9563 15.4292L22.2844 22.9434L21.4186 23.8092L19.4085 17.9118C19.3725 17.8069 19.3103 17.7129 19.228 17.6387C19.1456 17.5644 19.0457 17.5123 18.9377 17.4873C18.8296 17.4622 18.717 17.4651 18.6104 17.4956C18.5037 17.5261 18.4066 17.5832 18.3281 17.6615L14.3335 21.6561C14.2567 21.7327 14.2001 21.8272 14.1689 21.9311C14.1377 22.0349 14.1329 22.145 14.1547 22.2512L14.3999 23.4363L13.4856 24.3507L12.4946 21.9932C12.4283 21.8353 12.3027 21.7096 12.1447 21.6433L9.78726 20.6523L10.6991 19.7405L11.8969 19.9934C12.0036 20.0157 12.1141 20.0111 12.2185 19.9799C12.3228 19.9486 12.4177 19.8918 12.4946 19.8146L16.4713 15.82C16.5502 15.7414 16.6077 15.6439 16.6384 15.5368C16.6691 15.4297 16.6719 15.3166 16.6465 15.2081C16.6212 15.0996 16.5686 14.9994 16.4937 14.917C16.4188 14.8346 16.324 14.7726 16.2184 14.7371L10.3134 12.7423L11.1767 11.8791L18.678 13.2148C18.7817 13.2333 18.8884 13.2265 18.9889 13.1949C19.0894 13.1634 19.1808 13.108 19.2553 13.0335L22.4811 9.81025C22.7416 9.54962 23.072 9.42458 23.4056 9.42458Z" fill="#4C65AE"/>
</svg>
