<svg width="153" height="131" viewBox="0 0 153 131" fill="none" xmlns="http://www.w3.org/2000/svg">
<path d="M72.4876 78.5966L60.6016 76.2313L60.7886 75.4058L71.2968 77.4949L72.4876 78.5966Z" fill="white"/>
<path d="M129.13 97.3599C131.111 97.3599 132.717 95.754 132.717 93.773C132.717 91.792 131.111 90.186 129.13 90.186C127.149 90.186 125.543 91.792 125.543 93.773C125.543 95.754 127.149 97.3599 129.13 97.3599Z" fill="#6C63FF"/>
<path d="M83.0113 5.1242C84.4263 5.1242 85.5734 3.97711 85.5734 2.5621C85.5734 1.14709 84.4263 0 83.0113 0C81.5963 0 80.4492 1.14709 80.4492 2.5621C80.4492 3.97711 81.5963 5.1242 83.0113 5.1242Z" fill="#FF6584"/>
<path d="M27.1598 84.549C28.5748 84.549 29.7219 83.4019 29.7219 81.9869C29.7219 80.5719 28.5748 79.4248 27.1598 79.4248C25.7447 79.4248 24.5977 80.5719 24.5977 81.9869C24.5977 83.4019 25.7447 84.549 27.1598 84.549Z" fill="#FF6584"/>
<path d="M116.832 75.8381C118.247 75.8381 119.394 74.691 119.394 73.276C119.394 71.861 118.247 70.7139 116.832 70.7139C115.417 70.7139 114.27 71.861 114.27 73.276C114.27 74.691 115.417 75.8381 116.832 75.8381Z" fill="#6C63FF"/>
<path d="M38.9449 110.683C40.3599 110.683 41.507 109.536 41.507 108.121C41.507 106.706 40.3599 105.559 38.9449 105.559C37.5299 105.559 36.3828 106.706 36.3828 108.121C36.3828 109.536 37.5299 110.683 38.9449 110.683Z" fill="#6C63FF"/>
<path d="M119.906 117.857C121.321 117.857 122.468 116.71 122.468 115.295C122.468 113.88 121.321 112.732 119.906 112.732C118.491 112.732 117.344 113.88 117.344 115.295C117.344 116.71 118.491 117.857 119.906 117.857Z" fill="#E6E6E6"/>
<path d="M97.359 26.6457C98.774 26.6457 99.9211 25.4986 99.9211 24.0836C99.9211 22.6686 98.774 21.5215 97.359 21.5215C95.944 21.5215 94.7969 22.6686 94.7969 24.0836C94.7969 25.4986 95.944 26.6457 97.359 26.6457Z" fill="#CCCCCC"/>
<path d="M0.521001 54.8169C3.20378 54.9859 5.80832 55.7883 8.12112 57.1582C10.4339 58.5282 12.3891 60.4268 13.8265 62.6983C14.2293 63.3423 14.7552 64.0499 14.4763 64.8425C14.3792 65.1465 14.1818 65.4084 13.9165 65.5856C13.6511 65.7628 13.3335 65.8448 13.0156 65.8181C12.6192 65.7328 12.2618 65.5194 11.9987 65.2109C11.7356 64.9023 11.5813 64.5158 11.5596 64.1109C11.5379 63.706 11.65 63.3052 11.8787 62.9703C12.1073 62.6354 12.4398 62.385 12.8248 62.2578C14.6855 61.4641 16.5628 62.6907 18.0784 63.6697C21.5319 65.9002 25.3304 67.9175 29.5151 68.1717C33.3869 68.4069 37.5388 66.8888 39.6923 63.5312C40.0691 62.9438 39.1336 62.4009 38.7587 62.9854C36.6229 66.3153 32.3052 67.5113 28.5511 66.9966C26.3139 66.6436 24.1536 65.9102 22.1639 64.8281C21.1321 64.2926 20.1313 63.699 19.1508 63.075C18.2177 62.4239 17.2287 61.857 16.1954 61.3808C14.4721 60.6729 12.1908 60.7282 10.9871 62.358C9.86409 63.8785 10.732 66.41 12.6102 66.8374C13.0223 66.9187 13.448 66.8964 13.8493 66.7726C14.2506 66.6488 14.6149 66.4273 14.9096 66.1281C15.2043 65.8288 15.4201 65.4611 15.5376 65.058C15.6552 64.6548 15.6709 64.2288 15.5834 63.818C15.3959 62.9226 14.7217 62.0464 14.1998 61.3145C12.6318 59.1086 10.5888 57.2826 8.22145 55.971C5.8541 54.6593 3.22265 53.8955 0.520939 53.7357C-0.174553 53.7013 -0.172739 54.7825 0.520939 54.8169L0.521001 54.8169Z" fill="#CCCCCC"/>
<path d="M152.048 87.5457C150.25 86.3884 148.752 84.8216 147.677 82.9736C146.602 81.1257 145.98 79.0492 145.862 76.9145C145.832 76.3111 145.741 75.6159 146.242 75.1735C146.427 75.0001 146.666 74.8946 146.919 74.8744C147.172 74.8542 147.424 74.9204 147.635 75.0622C147.877 75.2751 148.042 75.5618 148.106 75.8781C148.169 76.1943 148.126 76.5226 147.984 76.8122C147.842 77.1018 147.609 77.3367 147.32 77.4807C147.032 77.6246 146.704 77.6696 146.387 77.6087C144.787 77.4387 143.959 75.8591 143.286 74.5918C141.752 71.704 139.896 68.8306 137.088 67.032C134.49 65.3678 131.019 64.8128 128.221 66.3098C127.732 66.5717 128.171 67.3113 128.658 67.0507C131.432 65.566 134.895 66.409 137.302 68.2217C138.719 69.3341 139.935 70.6808 140.898 72.2035C141.407 72.9754 141.872 73.7756 142.311 74.5891C142.706 75.4029 143.173 76.18 143.706 76.9112C144.629 78.0708 146.235 78.9168 147.702 78.2515C148.029 78.0822 148.312 77.8388 148.528 77.5407C148.745 77.2425 148.888 76.898 148.947 76.5345C149.006 76.1711 148.98 75.7988 148.869 75.4475C148.759 75.0962 148.568 74.7756 148.311 74.5113C148.057 74.2952 147.752 74.1457 147.426 74.0761C147.099 74.0065 146.76 74.0191 146.44 74.1127C146.119 74.2063 145.827 74.378 145.589 74.6124C145.351 74.8468 145.175 75.1366 145.076 75.4558C144.925 76.2063 144.922 76.9791 145.067 77.7308C145.301 79.8706 146.012 81.9307 147.147 83.7593C148.283 85.5879 149.814 87.1384 151.629 88.2966C152.098 88.5901 152.516 87.8384 152.048 87.5457L152.048 87.5457Z" fill="#CCCCCC"/>
<path d="M63.6387 16.6054C61.505 16.4709 59.4335 15.8328 57.594 14.7432C55.7545 13.6536 54.1994 12.1435 53.0562 10.3369C52.7359 9.82472 52.3176 9.26188 52.5394 8.63147C52.6167 8.38975 52.7736 8.18139 52.9847 8.04045C53.1957 7.8995 53.4483 7.83432 53.7012 7.85555C54.0165 7.92342 54.3007 8.09314 54.51 8.33853C54.7192 8.58392 54.842 8.89135 54.8592 9.2134C54.8765 9.53545 54.7873 9.85423 54.6054 10.1206C54.4236 10.3869 54.1591 10.586 53.8529 10.6872C52.373 11.3185 50.8799 10.3429 49.6745 9.56431C46.9277 7.79023 43.9066 6.18582 40.5783 5.98364C37.4989 5.7966 34.1967 7.00402 32.4839 9.67446C32.1842 10.1417 32.9282 10.5734 33.2264 10.1085C34.9251 7.46006 38.3591 6.50887 41.345 6.91822C43.1243 7.199 44.8425 7.78233 46.425 8.64292C47.2457 9.06883 48.0416 9.54096 48.8215 10.0373C49.5636 10.5551 50.3502 11.006 51.1721 11.3848C52.5427 11.9478 54.3571 11.9038 55.3145 10.6075C55.5176 10.3003 55.646 9.94991 55.6894 9.58424C55.7328 9.21858 55.6901 8.84782 55.5647 8.50161C55.4392 8.15541 55.2345 7.84335 54.9669 7.5904C54.6993 7.33745 54.3762 7.15061 54.0235 7.04483C53.6958 6.98022 53.3572 6.99795 53.038 7.09642C52.7188 7.19488 52.4291 7.37101 52.1947 7.60902C51.9604 7.84702 51.7887 8.13945 51.6952 8.46011C51.6017 8.78077 51.5892 9.11962 51.6589 9.44629C51.8928 10.1752 52.2665 10.8516 52.7593 11.4375C54.0064 13.1919 55.6313 14.6442 57.5142 15.6874C59.397 16.7307 61.4899 17.3382 63.6387 17.4653C64.1919 17.4927 64.1905 16.6326 63.6387 16.6053L63.6387 16.6054Z" fill="#CCCCCC"/>
<path d="M65.5894 43.8486H63.0273V52.267H65.5894V43.8486Z" fill="#CCCCCC"/>
<path d="M24.1647 37.9735L25.9453 36.1929L20.0948 30.3424L18.3142 32.1229L24.1647 37.9735Z" fill="#B3B3B3"/>
<path d="M96.1999 55.6652L97.9805 57.4458L103.831 51.5953L102.05 49.8147L96.1999 55.6652Z" fill="#B3B3B3"/>
<path d="M23.4382 128.428L25.2188 130.209L31.0693 124.358L29.2887 122.578L23.4382 128.428Z" fill="#FF6584"/>
</svg>
