<svg width="327" height="142" viewBox="0 0 327 142" fill="none" xmlns="http://www.w3.org/2000/svg">
<path d="M294.963 58.519H103.111C102.296 58.519 101.515 58.8427 100.939 59.4187C100.363 59.9947 100.039 60.776 100.039 61.5906C100.039 62.4052 100.363 63.1864 100.939 63.7625C101.515 64.3385 102.296 64.6621 103.111 64.6621H108.545V138.143C108.545 138.957 108.868 139.738 109.444 140.314C110.021 140.891 110.802 141.214 111.616 141.214C112.431 141.214 113.212 140.891 113.788 140.314C114.364 139.738 114.688 138.957 114.688 138.143L114.735 64.6621H268.716L282.913 138.143C282.913 138.957 283.237 139.738 283.813 140.314C284.389 140.891 285.17 141.214 285.985 141.214C286.8 141.214 287.581 140.891 288.157 140.314C288.733 139.738 289.056 138.957 289.056 138.143L289.95 64.6621H294.963C295.778 64.6621 296.559 64.3385 297.135 63.7625C297.711 63.1864 298.035 62.4052 298.035 61.5906C298.035 60.776 297.711 59.9947 297.135 59.4187C296.559 58.8427 295.778 58.519 294.963 58.519V58.519Z" fill="#CCCCCC"/>
<path d="M136.364 44.8326V57.8397H103.777C102.923 57.8694 102.071 57.7306 101.271 57.4312C100.47 57.1318 99.7367 56.6777 99.1117 56.0948C98.4868 55.5119 97.9828 54.8116 97.6285 54.0339C97.2743 53.2563 97.0766 52.4164 97.0469 51.5624C97.0172 50.7083 97.156 49.8567 97.4554 49.0563C97.7547 48.2559 98.2089 47.5223 98.7918 46.8974C99.3747 46.2725 100.075 45.7685 100.853 45.4142C101.63 45.0599 102.47 44.8623 103.324 44.8325C103.475 44.8273 103.626 44.8273 103.777 44.8325L136.364 44.8326Z" fill="#F2F2F2"/>
<path d="M137.165 57.7399C137.165 57.8726 137.112 57.9998 137.019 58.0936C136.925 58.1874 136.798 58.2401 136.665 58.2402H103.197C101.38 58.2389 99.6377 57.5163 98.3534 56.2311C97.0691 54.9459 96.3477 53.2034 96.3477 51.3865C96.3477 49.5696 97.0691 47.827 98.3534 46.5418C99.6377 45.2566 101.38 44.534 103.197 44.5327H136.665C136.731 44.5325 136.796 44.5454 136.857 44.5704C136.918 44.5955 136.973 44.6323 137.019 44.6788C137.066 44.7253 137.103 44.7805 137.128 44.8412C137.153 44.902 137.166 44.9672 137.166 45.033C137.166 45.0988 137.153 45.164 137.128 45.2247C137.103 45.2855 137.066 45.3407 137.019 45.3872C136.973 45.4337 136.918 45.4705 136.857 45.4956C136.796 45.5206 136.731 45.5334 136.665 45.5333H103.197C101.646 45.5356 100.159 46.1533 99.0635 47.2508C97.9677 48.3482 97.3523 49.8356 97.3523 51.3865C97.3523 52.9373 97.9677 54.4247 99.0635 55.5222C100.159 56.6196 101.646 57.2373 103.197 57.2397H136.665C136.798 57.2397 136.925 57.2924 137.019 57.3862C137.112 57.4801 137.165 57.6073 137.165 57.7399V57.7399Z" fill="#FFE249"/>
<path d="M136.366 47.8344H101.347C101.32 47.8345 101.295 47.8242 101.276 47.8056C101.257 47.787 101.246 47.7617 101.246 47.7352C101.246 47.7088 101.256 47.6833 101.275 47.6644C101.293 47.6454 101.318 47.6346 101.345 47.6343H136.366C136.392 47.6345 136.417 47.6452 136.436 47.6639C136.454 47.6827 136.465 47.708 136.465 47.7343C136.465 47.7607 136.454 47.786 136.436 47.8047C136.417 47.8235 136.392 47.8341 136.366 47.8344Z" fill="#CCCCCC"/>
<path d="M136.366 50.2357H101.347C101.32 50.2359 101.295 50.2255 101.276 50.207C101.257 50.1884 101.246 50.1631 101.246 50.1366C101.246 50.1101 101.256 50.0847 101.275 50.0657C101.293 50.0468 101.318 50.036 101.345 50.0356H136.366C136.392 50.0359 136.417 50.0466 136.436 50.0653C136.454 50.084 136.465 50.1093 136.465 50.1357C136.465 50.1621 136.454 50.1874 136.436 50.2061C136.417 50.2248 136.392 50.2355 136.366 50.2357Z" fill="#CCCCCC"/>
<path d="M136.366 52.6371H101.347C101.32 52.6373 101.295 52.6269 101.276 52.6083C101.257 52.5897 101.246 52.5645 101.246 52.538C101.246 52.5115 101.256 52.486 101.275 52.4671C101.293 52.4482 101.318 52.4374 101.345 52.437H136.366C136.392 52.4373 136.417 52.4479 136.436 52.4667C136.454 52.4854 136.465 52.5107 136.465 52.5371C136.465 52.5634 136.454 52.5887 136.436 52.6075C136.417 52.6262 136.392 52.6369 136.366 52.6371Z" fill="#CCCCCC"/>
<path d="M136.366 55.0385H101.347C101.32 55.0386 101.295 55.0283 101.276 55.0097C101.257 54.9911 101.246 54.9658 101.246 54.9394C101.246 54.9129 101.256 54.8874 101.275 54.8685C101.293 54.8495 101.318 54.8387 101.345 54.8384H136.366C136.392 54.8386 136.417 54.8493 136.436 54.868C136.454 54.8868 136.465 54.9121 136.465 54.9384C136.465 54.9648 136.454 54.9901 136.436 55.0088C136.417 55.0276 136.392 55.0382 136.366 55.0385Z" fill="#CCCCCC"/>
<path d="M130.224 31.1289V44.136H97.6361C95.9112 44.196 94.2332 43.5684 92.9711 42.3912C91.709 41.214 90.9663 39.5836 90.9063 37.8587C90.8463 36.1339 91.4739 34.4559 92.6511 33.1938C93.8284 31.9317 95.4587 31.1889 97.1836 31.1289C97.3344 31.1237 97.4852 31.1237 97.6361 31.1289H130.224Z" fill="#F2F2F2"/>
<path d="M131.025 44.0358C131.025 44.1685 130.973 44.2957 130.879 44.3895C130.785 44.4833 130.658 44.536 130.525 44.5361H97.0569C95.2391 44.5361 93.4959 43.814 92.2105 42.5287C90.9252 41.2433 90.2031 39.5001 90.2031 37.6823C90.2031 35.8646 90.9252 34.1214 92.2105 32.836C93.4959 31.5507 95.2391 30.8286 97.0569 30.8286H130.525C130.591 30.8286 130.656 30.8416 130.717 30.8667C130.777 30.8918 130.832 30.9287 130.879 30.9751C130.925 31.0216 130.962 31.0767 130.987 31.1374C131.012 31.1981 131.025 31.2632 131.025 31.3289C131.025 31.3946 131.012 31.4596 130.987 31.5203C130.962 31.581 130.925 31.6362 130.879 31.6826C130.832 31.7291 130.777 31.7659 130.717 31.7911C130.656 31.8162 130.591 31.8292 130.525 31.8292H97.0569C95.5045 31.8292 94.0157 32.4458 92.918 33.5435C91.8203 34.6412 91.2037 36.13 91.2037 37.6824C91.2037 39.2347 91.8203 40.7235 92.918 41.8212C94.0157 42.9189 95.5045 43.5355 97.0569 43.5355H130.525C130.658 43.5356 130.785 43.5883 130.879 43.6821C130.973 43.7759 131.025 43.9032 131.025 44.0358Z" fill="#3F3D56"/>
<path d="M130.221 34.1308H95.2022C95.1757 34.1309 95.1502 34.1206 95.1314 34.102C95.1125 34.0834 95.1018 34.0581 95.1016 34.0316C95.1013 34.0052 95.1116 33.9797 95.1301 33.9608C95.1486 33.9418 95.1738 33.931 95.2003 33.9307H130.221C130.248 33.9309 130.273 33.9416 130.291 33.9603C130.31 33.9791 130.32 34.0043 130.32 34.0307C130.32 34.0571 130.31 34.0824 130.291 34.1011C130.273 34.1198 130.248 34.1305 130.221 34.1308V34.1308Z" fill="#CCCCCC"/>
<path d="M130.221 36.5321H95.2022C95.1757 36.5323 95.1502 36.5219 95.1314 36.5034C95.1125 36.4848 95.1018 36.4595 95.1016 36.433C95.1013 36.4065 95.1116 36.3811 95.1301 36.3621C95.1486 36.3432 95.1738 36.3324 95.2003 36.332H130.221C130.248 36.3323 130.273 36.343 130.291 36.3617C130.31 36.3804 130.32 36.4057 130.32 36.4321C130.32 36.4584 130.31 36.4838 130.291 36.5025C130.273 36.5212 130.248 36.5319 130.221 36.5321Z" fill="#CCCCCC"/>
<path d="M130.221 38.933H95.2022C95.1757 38.9332 95.1502 38.9228 95.1314 38.9042C95.1125 38.8856 95.1018 38.8604 95.1016 38.8339C95.1013 38.8074 95.1116 38.7819 95.1301 38.763C95.1486 38.7441 95.1738 38.7333 95.2003 38.7329H130.221C130.248 38.7332 130.273 38.7438 130.291 38.7626C130.31 38.7813 130.32 38.8066 130.32 38.833C130.32 38.8593 130.31 38.8846 130.291 38.9034C130.273 38.9221 130.248 38.9327 130.221 38.933Z" fill="#CCCCCC"/>
<path d="M130.221 41.3344H95.2022C95.1757 41.3345 95.1502 41.3242 95.1314 41.3056C95.1125 41.287 95.1018 41.2617 95.1016 41.2352C95.1013 41.2088 95.1116 41.1833 95.1301 41.1644C95.1486 41.1454 95.1738 41.1346 95.2003 41.1343H130.221C130.248 41.1345 130.273 41.1452 130.291 41.1639C130.31 41.1827 130.32 41.208 130.32 41.2343C130.32 41.2607 130.31 41.286 130.291 41.3047C130.273 41.3235 130.248 41.3341 130.221 41.3344V41.3344Z" fill="#CCCCCC"/>
<path d="M168.133 104.546V93.2046C168.133 92.7033 167.934 92.2226 167.58 91.8681C167.225 91.5136 166.744 91.3145 166.243 91.3145H123.242C122.74 91.3145 122.26 91.5136 121.905 91.8681C121.551 92.2226 121.352 92.7033 121.352 93.2046V104.546H168.133Z" fill="#CCCCCC"/>
<path d="M168.133 108.798H121.352V123.447H168.133V108.798Z" fill="#CCCCCC"/>
<path d="M121.352 127.7V139.041C121.352 139.543 121.551 140.023 121.905 140.378C122.26 140.732 122.74 140.931 123.242 140.931H166.243C166.744 140.931 167.225 140.732 167.58 140.378C167.934 140.023 168.133 139.543 168.133 139.041V127.7H121.352Z" fill="#CCCCCC"/>
<path d="M144.504 99.8201C145.287 99.8201 145.921 99.1854 145.921 98.4025C145.921 97.6196 145.287 96.9849 144.504 96.9849C143.721 96.9849 143.086 97.6196 143.086 98.4025C143.086 99.1854 143.721 99.8201 144.504 99.8201Z" fill="#FFE249"/>
<path d="M144.504 118.722C145.287 118.722 145.921 118.087 145.921 117.304C145.921 116.521 145.287 115.887 144.504 115.887C143.721 115.887 143.086 116.521 143.086 117.304C143.086 118.087 143.721 118.722 144.504 118.722Z" fill="#FFE249"/>
<path d="M144.582 137.223C145.365 137.223 145.999 136.589 145.999 135.806C145.999 135.023 145.365 134.388 144.582 134.388C143.799 134.388 143.164 135.023 143.164 135.806C143.164 136.589 143.799 137.223 144.582 137.223Z" fill="#FFE249"/>
<path d="M162.829 78.3833V91.3904H130.241C128.517 91.4492 126.84 90.8211 125.579 89.644C124.318 88.4669 123.576 86.8372 123.516 85.1132C123.456 83.3891 124.083 81.7118 125.259 80.4498C126.435 79.1879 128.064 78.4446 129.788 78.3833C129.939 78.3781 130.09 78.3781 130.241 78.3833H162.829Z" fill="#F2F2F2"/>
<path d="M163.629 91.2902C163.629 91.4229 163.576 91.5501 163.482 91.6439C163.388 91.7377 163.261 91.7904 163.128 91.7905H129.66C127.843 91.7909 126.1 91.0696 124.814 89.7851C123.529 88.5006 122.806 86.7582 122.805 84.9409C122.804 83.1236 123.524 81.3802 124.808 80.0942C126.092 78.8082 127.835 78.0847 129.652 78.083H163.128C163.194 78.0828 163.259 78.0956 163.32 78.1207C163.381 78.1458 163.436 78.1826 163.483 78.2291C163.53 78.2755 163.567 78.3308 163.592 78.3915C163.617 78.4523 163.63 78.5175 163.63 78.5833C163.63 78.6491 163.617 78.7142 163.592 78.775C163.567 78.8358 163.53 78.891 163.483 78.9375C163.436 78.984 163.381 79.0208 163.32 79.0458C163.259 79.0709 163.194 79.0837 163.128 79.0836H129.66C128.109 79.0856 126.622 79.7032 125.526 80.8006C124.43 81.8981 123.815 83.3857 123.815 84.9367C123.815 86.4878 124.43 87.9754 125.526 89.0729C126.622 90.1703 128.109 90.7879 129.66 90.7899H163.128C163.261 90.79 163.388 90.8427 163.482 90.9365C163.576 91.0303 163.629 91.1576 163.629 91.2902V91.2902Z" fill="#3F3D56"/>
<path d="M162.827 81.3852H127.808C127.781 81.3853 127.756 81.375 127.737 81.3564C127.718 81.3378 127.707 81.3125 127.707 81.286C127.707 81.2596 127.717 81.2341 127.736 81.2151C127.754 81.1962 127.779 81.1854 127.806 81.1851H162.827C162.853 81.1853 162.878 81.196 162.897 81.2147C162.915 81.2335 162.926 81.2587 162.926 81.2851C162.926 81.3115 162.915 81.3368 162.897 81.3555C162.878 81.3742 162.853 81.3849 162.827 81.3852H162.827Z" fill="#CCCCCC"/>
<path d="M162.827 83.786H127.808C127.781 83.7862 127.756 83.7758 127.737 83.7573C127.718 83.7387 127.707 83.7134 127.707 83.6869C127.707 83.6605 127.717 83.635 127.736 83.616C127.754 83.5971 127.779 83.5863 127.806 83.5859H162.827C162.853 83.5862 162.878 83.5969 162.897 83.6156C162.915 83.6343 162.926 83.6596 162.926 83.686C162.926 83.7124 162.915 83.7377 162.897 83.7564C162.878 83.7751 162.853 83.7858 162.827 83.786H162.827Z" fill="#CCCCCC"/>
<path d="M162.827 86.1874H127.808C127.781 86.1875 127.756 86.1772 127.737 86.1586C127.718 86.14 127.707 86.1147 127.707 86.0883C127.707 86.0618 127.717 86.0363 127.736 86.0174C127.754 85.9985 127.779 85.9877 127.806 85.9873H162.827C162.853 85.9876 162.878 85.9982 162.897 86.017C162.915 86.0357 162.926 86.061 162.926 86.0874C162.926 86.1137 162.915 86.139 162.897 86.1578C162.878 86.1765 162.853 86.1871 162.827 86.1874H162.827Z" fill="#CCCCCC"/>
<path d="M162.827 88.5888H127.808C127.781 88.5889 127.756 88.5786 127.737 88.56C127.718 88.5414 127.707 88.5161 127.707 88.4896C127.707 88.4632 127.717 88.4377 127.736 88.4188C127.754 88.3998 127.779 88.389 127.806 88.3887H162.827C162.853 88.3889 162.878 88.3996 162.897 88.4183C162.915 88.4371 162.926 88.4624 162.926 88.4887C162.926 88.5151 162.915 88.5404 162.897 88.5591C162.878 88.5779 162.853 88.5885 162.827 88.5888H162.827Z" fill="#CCCCCC"/>
<path d="M124.557 26.7899H109.71C109.569 26.7898 109.43 26.8221 109.304 26.8844L105.556 28.7604C105.433 28.8128 105.328 28.9003 105.254 29.0121C105.18 29.1238 105.141 29.2549 105.141 29.3889C105.141 29.5228 105.18 29.6539 105.254 29.7656C105.328 29.8774 105.433 29.9649 105.556 30.0173L109.304 31.8933C109.43 31.9556 109.569 31.988 109.71 31.9878H124.557C124.762 31.9997 124.963 31.9304 125.117 31.7951C125.271 31.6598 125.365 31.4693 125.38 31.2648V27.5129C125.365 27.3084 125.271 27.1179 125.117 26.9826C124.963 26.8473 124.762 26.778 124.557 26.7899V26.7899Z" fill="#3F3D56"/>
<path d="M125.378 27.5129V31.2648C125.364 31.4693 125.269 31.6598 125.115 31.7951C124.961 31.9305 124.76 31.9997 124.556 31.9879H121.598V26.7899H124.556C124.76 26.778 124.961 26.8473 125.115 26.9826C125.269 27.1179 125.364 27.3084 125.378 27.5129V27.5129Z" fill="#FFE249"/>
<path d="M35.5418 100.308C37.4536 100.98 39.5062 101.149 41.502 100.797C43.4977 100.445 45.3693 99.5859 46.9364 98.301C50.9274 94.9513 52.1787 89.4326 53.1969 84.3225C54.2007 79.2843 55.2045 74.2462 56.2083 69.208L49.9035 73.5493C45.3695 76.6712 40.7333 79.8932 37.594 84.4152C34.4546 88.9373 33.0843 95.1102 35.6066 100.003" fill="#E6E6E6"/>
<path d="M36.08 118.608C35.4418 113.96 34.7857 109.252 35.2333 104.554C35.6308 100.381 36.9037 96.3061 39.4952 92.9648C40.8708 91.1945 42.5446 89.6778 44.4413 88.4828C44.9359 88.1706 45.3912 88.9544 44.8987 89.2652C41.6168 91.3395 39.0783 94.4023 37.6493 98.0123C36.071 102.027 35.8175 106.403 36.0895 110.667C36.254 113.246 36.6026 115.808 36.9538 118.367C36.9815 118.482 36.9642 118.604 36.9055 118.708C36.8468 118.811 36.7509 118.889 36.6374 118.924C36.5215 118.955 36.398 118.94 36.2937 118.88C36.1893 118.821 36.1125 118.723 36.08 118.608L36.08 118.608Z" fill="#F2F2F2"/>
<path d="M42.2266 110.382C43.0465 111.629 44.1736 112.643 45.4991 113.327C46.8247 114.011 48.3042 114.342 49.795 114.289C53.6262 114.107 56.8203 111.433 59.6955 108.894L68.1999 101.385L62.5714 101.116C58.5237 100.922 54.3716 100.742 50.5163 101.99C46.6611 103.238 43.1055 106.242 42.4006 110.233" fill="#E6E6E6"/>
<path d="M34.2784 121.279C37.3498 115.845 40.9124 109.805 47.2781 107.874C49.0481 107.339 50.904 107.148 52.746 107.31C53.3265 107.36 53.1816 108.255 52.6021 108.205C49.5146 107.948 46.433 108.764 43.8762 110.513C41.4158 112.188 39.5002 114.516 37.8788 116.985C36.8856 118.498 35.996 120.074 35.1062 121.649C34.8219 122.152 33.9907 121.788 34.2784 121.279L34.2784 121.279Z" fill="#F2F2F2"/>
<path d="M29.3563 127C29.4598 125.801 29.8903 124.653 30.601 123.682C31.3117 122.71 32.2753 121.953 33.3868 121.491V118.349H38.6565V121.59C39.7133 122.074 40.6229 122.83 41.2923 123.78C41.9618 124.731 42.3673 125.842 42.4675 127L43.7066 141.404H28.1172L29.3563 127Z" fill="#FFE249"/>
<path d="M208.568 58.2237L207 57.5637L205.925 49.7051H191.604L190.438 57.5315L189.036 58.2328C188.969 58.2663 188.915 58.3216 188.883 58.3895C188.851 58.4575 188.843 58.5342 188.86 58.6072C188.878 58.6802 188.919 58.7453 188.978 58.7918C189.037 58.8384 189.11 58.8637 189.185 58.8637H208.438C208.515 58.8637 208.59 58.8371 208.649 58.7884C208.709 58.7397 208.75 58.672 208.765 58.5966C208.78 58.5212 208.769 58.4429 208.733 58.3749C208.697 58.307 208.638 58.2536 208.568 58.2237V58.2237Z" fill="#E6E6E6"/>
<path d="M234.016 50.7507H163.668C163.299 50.7498 162.945 50.6026 162.684 50.3414C162.424 50.0801 162.277 49.7261 162.277 49.357V39.437H235.406V49.357C235.406 49.7261 235.26 50.0801 234.999 50.3414C234.738 50.6026 234.385 50.7498 234.016 50.7507V50.7507Z" fill="#CCCCCC"/>
<path d="M235.481 44.1254H162.215V1.68009C162.215 1.23465 162.393 0.807604 162.708 0.492636C163.022 0.177668 163.45 0.000498418 163.895 0H233.801C234.247 0.00049841 234.674 0.177669 234.989 0.492636C235.304 0.807604 235.481 1.23465 235.481 1.68009L235.481 44.1254Z" fill="#3F3D56"/>
<path d="M231.107 41.0447H166.592C166.249 41.0443 165.92 40.9077 165.677 40.6649C165.434 40.4221 165.297 40.0929 165.297 39.7495V4.37588C165.297 4.03247 165.434 3.70322 165.677 3.46039C165.919 3.21756 166.249 3.08096 166.592 3.08057H231.107C231.45 3.08096 231.779 3.21756 232.022 3.46039C232.265 3.70322 232.402 4.03247 232.402 4.37588V39.7495C232.402 40.0929 232.265 40.4221 232.022 40.6649C231.779 40.9077 231.45 41.0443 231.107 41.0447V41.0447Z" fill="white"/>
<path d="M214.112 53.5265C214.529 53.1418 215.024 52.853 215.565 52.6807C216.105 52.5083 216.676 52.4564 217.239 52.5288C217.801 52.6011 218.341 52.7959 218.82 53.0994C219.299 53.4028 219.705 53.8076 220.011 54.2853L228.737 52.7338L230.973 57.8069L218.619 59.8247C217.783 60.2849 216.807 60.4223 215.876 60.2109C214.945 59.9995 214.124 59.4539 213.568 58.6776C213.013 57.9012 212.761 56.9481 212.861 55.9987C212.962 55.0493 213.407 54.1697 214.112 53.5265V53.5265Z" fill="#FFB6B6"/>
<path d="M222.191 60.0038L231.289 59.8904L232.44 59.8748L250.949 59.6416C250.949 59.6416 255.976 54.8465 260.352 49.9095L259.739 45.4725C259.141 41.118 256.981 37.1293 253.661 34.2485C247.392 38.437 243.757 46.7277 243.757 46.7277L232.281 49.4726L231.133 49.7472L224.002 51.4512L222.191 60.0038Z" fill="#FFE249"/>
<path d="M268.764 87.2754H251.783C251.783 88.003 233.22 88.5935 233.22 88.5935C232.81 88.9019 232.437 89.2556 232.107 89.6481C231.116 90.8299 230.575 92.3238 230.578 93.8662V94.9207C230.579 96.6685 231.273 98.3445 232.509 99.5804C233.745 100.816 235.421 101.511 237.169 101.511H268.764C270.512 101.51 272.187 100.815 273.423 99.5794C274.659 98.3437 275.354 96.6682 275.355 94.9207V93.8662C275.353 92.1189 274.658 90.444 273.422 89.2085C272.187 87.973 270.512 87.2778 268.764 87.2754V87.2754Z" fill="#E4E4E4"/>
<path d="M256.413 101.25H249.559V140.814H256.413V101.25Z" fill="#E4E4E4"/>
<path d="M230.051 140.573C230.051 141.314 240.438 140.86 253.25 140.86C266.063 140.86 276.45 141.314 276.45 140.573C276.45 139.832 266.063 133.959 253.25 133.959C240.438 133.959 230.051 139.832 230.051 140.573Z" fill="#E4E4E4"/>
<path d="M225.446 136.052L220.345 136.052L217.918 116.375L225.447 116.376L225.446 136.052Z" fill="#FFB6B6"/>
<path d="M226.746 140.997L210.297 140.997V140.788C210.297 139.091 210.972 137.462 212.172 136.261C213.373 135.061 215.001 134.386 216.699 134.386H216.7L226.746 134.387L226.746 140.997Z" fill="#2F2E41"/>
<path d="M210.368 136.052L205.267 136.052L202.84 116.375L210.369 116.376L210.368 136.052Z" fill="#FFB6B6"/>
<path d="M211.671 140.997L195.223 140.997V140.788C195.223 139.091 195.897 137.462 197.098 136.261C198.299 135.061 199.927 134.386 201.625 134.386H201.625L211.672 134.387L211.671 140.997Z" fill="#2F2E41"/>
<path d="M256.065 22.7723C260.964 22.7723 264.935 18.8012 264.935 13.9025C264.935 9.00386 260.964 5.03271 256.065 5.03271C251.166 5.03271 247.195 9.00386 247.195 13.9025C247.195 18.8012 251.166 22.7723 256.065 22.7723Z" fill="#FFB6B6"/>
<path d="M270.422 74.6748C270.422 74.6748 273.398 90.4119 262.074 92.4159C250.751 94.4199 234.405 95.8284 234.405 95.8284L227.065 130.076L217.203 129.195C217.203 129.195 218.515 87.9691 221.74 84.7438C224.965 81.5184 245.351 71.8608 245.351 71.8608L270.422 74.6748Z" fill="#2F2E41"/>
<path d="M248.306 68.0791L243.353 73.0473C243.353 73.0473 207.594 78.8072 206.215 87.0663C204.132 99.5357 201.672 126.651 201.672 126.651L212.423 125.845L216.639 95.0218L233.841 91.1089L253.412 80.4431L248.306 68.0791Z" fill="#2F2E41"/>
<path d="M264.599 8.608C263.724 6.95602 262.611 3.66362 260.844 3.05301C259.862 2.72759 258.848 2.5115 257.819 2.40867L254.815 3.564L256.45 2.2925C256.132 2.27354 255.814 2.25803 255.496 2.24599L253.469 3.0255L254.506 2.21902C252.617 2.19963 250.666 2.39609 249.202 3.54635C247.954 4.52695 246.717 8.24164 246.517 9.81622C246.304 11.3225 246.378 12.8558 246.738 14.3341L247.251 14.8222C247.431 14.4105 247.566 13.9808 247.654 13.5404C247.838 12.7175 248.191 11.942 248.692 11.2632C249.192 10.5845 249.828 10.0174 250.56 9.59817L250.588 9.58241C251.448 9.09792 252.493 9.12025 253.48 9.15578L258.169 9.3245C259.297 9.36509 260.511 9.43647 261.391 10.144C261.95 10.666 262.389 11.3026 262.679 12.0103C263.116 12.8923 263.97 16.2189 263.97 16.2189C263.97 16.2189 264.453 15.591 264.685 16.0583C265.056 14.8389 265.282 13.5799 265.357 12.3074C265.431 11.0293 265.17 9.75406 264.599 8.608V8.608Z" fill="#2F2E41"/>
<path d="M295.624 17.7978C295.058 17.835 294.507 17.9959 294.01 18.269C293.513 18.5422 293.082 18.9209 292.748 19.3786C292.413 19.8363 292.183 20.3619 292.073 20.9182C291.963 21.4745 291.977 22.0481 292.113 22.5986L284.98 27.86L287.121 32.9743L297.089 25.4027C297.999 25.1129 298.77 24.4994 299.258 23.6786C299.745 22.8579 299.915 21.8868 299.734 20.9493C299.553 20.0119 299.035 19.1734 298.278 18.5925C297.52 18.0116 296.576 17.7289 295.624 17.7978V17.7978Z" fill="#FFB6B6"/>
<path d="M294.475 28.5387L276.595 48.3974C276.595 48.3974 268.044 45.66 261.43 42.6922L258.459 33.5674C257.77 31.4506 257.475 29.2248 257.591 27.0014C266.759 24.5619 277.422 33.6389 277.422 33.6389L290.806 23.1548L294.475 28.5387Z" fill="#FFE249"/>
<path d="M252.754 76.1415C249.564 75.0395 246.266 73.9001 242.708 73.4723L242.555 73.4539L242.597 73.3059C246.28 60.3736 245.361 52.1009 243.556 39.6742C243.172 36.9938 243.665 34.2611 244.962 31.884C246.259 29.5069 248.289 27.6129 250.751 26.4847L250.773 26.4748L260.935 25.829L260.958 25.8276L268.349 28.0013C269.412 28.3163 270.342 28.9712 270.998 29.8657C271.653 30.7601 271.997 31.8448 271.977 32.9535C271.897 37.0402 272.067 41.603 272.247 46.4335C272.65 57.2705 273.067 68.4766 270.701 75.7474L270.688 75.7855L270.657 75.8103C268.481 77.5821 265.756 78.5395 262.95 78.5174C259.633 78.5174 256.247 77.3481 252.754 76.1415Z" fill="#FFE249"/>
<path d="M326.527 141.854H0.472544C0.347218 141.854 0.227026 141.804 0.138407 141.716C0.049788 141.627 0 141.507 0 141.382C0 141.256 0.049788 141.136 0.138407 141.048C0.227026 140.959 0.347218 140.909 0.472544 140.909H326.527C326.653 140.909 326.773 140.959 326.862 141.048C326.95 141.136 327 141.256 327 141.382C327 141.507 326.95 141.627 326.862 141.716C326.773 141.804 326.653 141.854 326.527 141.854Z" fill="#CCCCCC"/>
</svg>
